<?xml version="1.0" encoding="utf-8" standalone="no"?>
<!DOCTYPE svg PUBLIC "-//W3C//DTD SVG 1.1//EN"
  "http://www.w3.org/Graphics/SVG/1.1/DTD/svg11.dtd">
<!-- Created with matplotlib (https://matplotlib.org/) -->
<svg height="248.518125pt" version="1.1" viewBox="0 0 368.925 248.518125" width="368.925pt" xmlns="http://www.w3.org/2000/svg" xmlns:xlink="http://www.w3.org/1999/xlink">
 <metadata>
  <rdf:RDF xmlns:cc="http://creativecommons.org/ns#" xmlns:dc="http://purl.org/dc/elements/1.1/" xmlns:rdf="http://www.w3.org/1999/02/22-rdf-syntax-ns#">
   <cc:Work>
    <dc:type rdf:resource="http://purl.org/dc/dcmitype/StillImage"/>
    <dc:date>2021-01-21T12:23:12.751597</dc:date>
    <dc:format>image/svg+xml</dc:format>
    <dc:creator>
     <cc:Agent>
      <dc:title>Matplotlib v3.3.2, https://matplotlib.org/</dc:title>
     </cc:Agent>
    </dc:creator>
   </cc:Work>
  </rdf:RDF>
 </metadata>
 <defs>
  <style type="text/css">*{stroke-linecap:butt;stroke-linejoin:round;}</style>
 </defs>
 <g id="figure_1">
  <g id="patch_1">
   <path d="M -0 248.518125 
L 368.925 248.518125 
L 368.925 0 
L -0 0 
z
" style="fill:none;"/>
  </g>
  <g id="axes_1">
   <g id="patch_2">
    <path d="M 26.925 224.64 
L 361.725 224.64 
L 361.725 7.2 
L 26.925 7.2 
z
" style="fill:#ffffff;"/>
   </g>
   <g id="patch_3">
    <path clip-path="url(#p22bc565456)" d="M 42.143182 224.64 
L 45.186818 224.64 
L 45.186818 213.740752 
L 42.143182 213.740752 
z
" style="fill:#1f77b4;"/>
   </g>
   <g id="patch_4">
    <path clip-path="url(#p22bc565456)" d="M 45.186818 224.64 
L 48.230455 224.64 
L 48.230455 213.740752 
L 45.186818 213.740752 
z
" style="fill:#1f77b4;"/>
   </g>
   <g id="patch_5">
    <path clip-path="url(#p22bc565456)" d="M 48.230455 224.64 
L 51.274091 224.64 
L 51.274091 186.492632 
L 48.230455 186.492632 
z
" style="fill:#1f77b4;"/>
   </g>
   <g id="patch_6">
    <path clip-path="url(#p22bc565456)" d="M 51.274091 224.64 
L 54.317727 224.64 
L 54.317727 202.841504 
L 51.274091 202.841504 
z
" style="fill:#1f77b4;"/>
   </g>
   <g id="patch_7">
    <path clip-path="url(#p22bc565456)" d="M 54.317727 224.64 
L 57.361364 224.64 
L 57.361364 159.244511 
L 54.317727 159.244511 
z
" style="fill:#1f77b4;"/>
   </g>
   <g id="patch_8">
    <path clip-path="url(#p22bc565456)" d="M 57.361364 224.64 
L 60.405 224.64 
L 60.405 148.345263 
L 57.361364 148.345263 
z
" style="fill:#1f77b4;"/>
   </g>
   <g id="patch_9">
    <path clip-path="url(#p22bc565456)" d="M 60.405 224.64 
L 63.448636 224.64 
L 63.448636 153.794887 
L 60.405 153.794887 
z
" style="fill:#1f77b4;"/>
   </g>
   <g id="patch_10">
    <path clip-path="url(#p22bc565456)" d="M 63.448636 224.64 
L 66.492273 224.64 
L 66.492273 88.399398 
L 63.448636 88.399398 
z
" style="fill:#1f77b4;"/>
   </g>
   <g id="patch_11">
    <path clip-path="url(#p22bc565456)" d="M 66.492273 224.64 
L 69.535909 224.64 
L 69.535909 88.399398 
L 66.492273 88.399398 
z
" style="fill:#1f77b4;"/>
   </g>
   <g id="patch_12">
    <path clip-path="url(#p22bc565456)" d="M 69.535909 224.64 
L 72.579545 224.64 
L 72.579545 93.849023 
L 69.535909 93.849023 
z
" style="fill:#1f77b4;"/>
   </g>
   <g id="patch_13">
    <path clip-path="url(#p22bc565456)" d="M 72.579545 224.64 
L 75.623182 224.64 
L 75.623182 93.849023 
L 72.579545 93.849023 
z
" style="fill:#1f77b4;"/>
   </g>
   <g id="patch_14">
    <path clip-path="url(#p22bc565456)" d="M 75.623182 224.64 
L 78.666818 224.64 
L 78.666818 77.50015 
L 75.623182 77.50015 
z
" style="fill:#1f77b4;"/>
   </g>
   <g id="patch_15">
    <path clip-path="url(#p22bc565456)" d="M 78.666818 224.64 
L 81.710455 224.64 
L 81.710455 99.298647 
L 78.666818 99.298647 
z
" style="fill:#1f77b4;"/>
   </g>
   <g id="patch_16">
    <path clip-path="url(#p22bc565456)" d="M 81.710455 224.64 
L 84.754091 224.64 
L 84.754091 61.151278 
L 81.710455 61.151278 
z
" style="fill:#1f77b4;"/>
   </g>
   <g id="patch_17">
    <path clip-path="url(#p22bc565456)" d="M 84.754091 224.64 
L 87.797727 224.64 
L 87.797727 93.849023 
L 84.754091 93.849023 
z
" style="fill:#1f77b4;"/>
   </g>
   <g id="patch_18">
    <path clip-path="url(#p22bc565456)" d="M 87.797727 224.64 
L 90.841364 224.64 
L 90.841364 17.554286 
L 87.797727 17.554286 
z
" style="fill:#1f77b4;"/>
   </g>
   <g id="patch_19">
    <path clip-path="url(#p22bc565456)" d="M 90.841364 224.64 
L 93.885 224.64 
L 93.885 137.446015 
L 90.841364 137.446015 
z
" style="fill:#1f77b4;"/>
   </g>
   <g id="patch_20">
    <path clip-path="url(#p22bc565456)" d="M 93.885 224.64 
L 96.928636 224.64 
L 96.928636 28.453534 
L 93.885 28.453534 
z
" style="fill:#1f77b4;"/>
   </g>
   <g id="patch_21">
    <path clip-path="url(#p22bc565456)" d="M 96.928636 224.64 
L 99.972273 224.64 
L 99.972273 33.903158 
L 96.928636 33.903158 
z
" style="fill:#1f77b4;"/>
   </g>
   <g id="patch_22">
    <path clip-path="url(#p22bc565456)" d="M 99.972273 224.64 
L 103.015909 224.64 
L 103.015909 44.802406 
L 99.972273 44.802406 
z
" style="fill:#1f77b4;"/>
   </g>
   <g id="patch_23">
    <path clip-path="url(#p22bc565456)" d="M 103.015909 224.64 
L 106.059545 224.64 
L 106.059545 142.895639 
L 103.015909 142.895639 
z
" style="fill:#1f77b4;"/>
   </g>
   <g id="patch_24">
    <path clip-path="url(#p22bc565456)" d="M 106.059545 224.64 
L 109.103182 224.64 
L 109.103182 77.50015 
L 106.059545 77.50015 
z
" style="fill:#1f77b4;"/>
   </g>
   <g id="patch_25">
    <path clip-path="url(#p22bc565456)" d="M 109.103182 224.64 
L 112.146818 224.64 
L 112.146818 23.00391 
L 109.103182 23.00391 
z
" style="fill:#1f77b4;"/>
   </g>
   <g id="patch_26">
    <path clip-path="url(#p22bc565456)" d="M 112.146818 224.64 
L 115.190455 224.64 
L 115.190455 55.701654 
L 112.146818 55.701654 
z
" style="fill:#1f77b4;"/>
   </g>
   <g id="patch_27">
    <path clip-path="url(#p22bc565456)" d="M 115.190455 224.64 
L 118.234091 224.64 
L 118.234091 99.298647 
L 115.190455 99.298647 
z
" style="fill:#1f77b4;"/>
   </g>
   <g id="patch_28">
    <path clip-path="url(#p22bc565456)" d="M 118.234091 224.64 
L 121.277727 224.64 
L 121.277727 77.50015 
L 118.234091 77.50015 
z
" style="fill:#1f77b4;"/>
   </g>
   <g id="patch_29">
    <path clip-path="url(#p22bc565456)" d="M 121.277727 224.64 
L 124.321364 224.64 
L 124.321364 88.399398 
L 121.277727 88.399398 
z
" style="fill:#1f77b4;"/>
   </g>
   <g id="patch_30">
    <path clip-path="url(#p22bc565456)" d="M 124.321364 224.64 
L 127.365 224.64 
L 127.365 148.345263 
L 124.321364 148.345263 
z
" style="fill:#1f77b4;"/>
   </g>
   <g id="patch_31">
    <path clip-path="url(#p22bc565456)" d="M 127.365 224.64 
L 130.408636 224.64 
L 130.408636 99.298647 
L 127.365 99.298647 
z
" style="fill:#1f77b4;"/>
   </g>
   <g id="patch_32">
    <path clip-path="url(#p22bc565456)" d="M 130.408636 224.64 
L 133.452273 224.64 
L 133.452273 115.647519 
L 130.408636 115.647519 
z
" style="fill:#1f77b4;"/>
   </g>
   <g id="patch_33">
    <path clip-path="url(#p22bc565456)" d="M 133.452273 224.64 
L 136.495909 224.64 
L 136.495909 126.546767 
L 133.452273 126.546767 
z
" style="fill:#1f77b4;"/>
   </g>
   <g id="patch_34">
    <path clip-path="url(#p22bc565456)" d="M 136.495909 224.64 
L 139.539545 224.64 
L 139.539545 93.849023 
L 136.495909 93.849023 
z
" style="fill:#1f77b4;"/>
   </g>
   <g id="patch_35">
    <path clip-path="url(#p22bc565456)" d="M 139.539545 224.64 
L 142.583182 224.64 
L 142.583182 148.345263 
L 139.539545 148.345263 
z
" style="fill:#1f77b4;"/>
   </g>
   <g id="patch_36">
    <path clip-path="url(#p22bc565456)" d="M 142.583182 224.64 
L 145.626818 224.64 
L 145.626818 159.244511 
L 142.583182 159.244511 
z
" style="fill:#1f77b4;"/>
   </g>
   <g id="patch_37">
    <path clip-path="url(#p22bc565456)" d="M 145.626818 224.64 
L 148.670455 224.64 
L 148.670455 115.647519 
L 145.626818 115.647519 
z
" style="fill:#1f77b4;"/>
   </g>
   <g id="patch_38">
    <path clip-path="url(#p22bc565456)" d="M 148.670455 224.64 
L 151.714091 224.64 
L 151.714091 121.097143 
L 148.670455 121.097143 
z
" style="fill:#1f77b4;"/>
   </g>
   <g id="patch_39">
    <path clip-path="url(#p22bc565456)" d="M 151.714091 224.64 
L 154.757727 224.64 
L 154.757727 148.345263 
L 151.714091 148.345263 
z
" style="fill:#1f77b4;"/>
   </g>
   <g id="patch_40">
    <path clip-path="url(#p22bc565456)" d="M 154.757727 224.64 
L 157.801364 224.64 
L 157.801364 104.748271 
L 154.757727 104.748271 
z
" style="fill:#1f77b4;"/>
   </g>
   <g id="patch_41">
    <path clip-path="url(#p22bc565456)" d="M 157.801364 224.64 
L 160.845 224.64 
L 160.845 170.143759 
L 157.801364 170.143759 
z
" style="fill:#1f77b4;"/>
   </g>
   <g id="patch_42">
    <path clip-path="url(#p22bc565456)" d="M 160.845 224.64 
L 163.888636 224.64 
L 163.888636 153.794887 
L 160.845 153.794887 
z
" style="fill:#1f77b4;"/>
   </g>
   <g id="patch_43">
    <path clip-path="url(#p22bc565456)" d="M 163.888636 224.64 
L 166.932273 224.64 
L 166.932273 153.794887 
L 163.888636 153.794887 
z
" style="fill:#1f77b4;"/>
   </g>
   <g id="patch_44">
    <path clip-path="url(#p22bc565456)" d="M 166.932273 224.64 
L 169.975909 224.64 
L 169.975909 126.546767 
L 166.932273 126.546767 
z
" style="fill:#1f77b4;"/>
   </g>
   <g id="patch_45">
    <path clip-path="url(#p22bc565456)" d="M 169.975909 224.64 
L 173.019545 224.64 
L 173.019545 164.694135 
L 169.975909 164.694135 
z
" style="fill:#1f77b4;"/>
   </g>
   <g id="patch_46">
    <path clip-path="url(#p22bc565456)" d="M 173.019545 224.64 
L 176.063182 224.64 
L 176.063182 159.244511 
L 173.019545 159.244511 
z
" style="fill:#1f77b4;"/>
   </g>
   <g id="patch_47">
    <path clip-path="url(#p22bc565456)" d="M 176.063182 224.64 
L 179.106818 224.64 
L 179.106818 181.043008 
L 176.063182 181.043008 
z
" style="fill:#1f77b4;"/>
   </g>
   <g id="patch_48">
    <path clip-path="url(#p22bc565456)" d="M 179.106818 224.64 
L 182.150455 224.64 
L 182.150455 191.942256 
L 179.106818 191.942256 
z
" style="fill:#1f77b4;"/>
   </g>
   <g id="patch_49">
    <path clip-path="url(#p22bc565456)" d="M 182.150455 224.64 
L 185.194091 224.64 
L 185.194091 186.492632 
L 182.150455 186.492632 
z
" style="fill:#1f77b4;"/>
   </g>
   <g id="patch_50">
    <path clip-path="url(#p22bc565456)" d="M 185.194091 224.64 
L 188.237727 224.64 
L 188.237727 175.593383 
L 185.194091 175.593383 
z
" style="fill:#1f77b4;"/>
   </g>
   <g id="patch_51">
    <path clip-path="url(#p22bc565456)" d="M 188.237727 224.64 
L 191.281364 224.64 
L 191.281364 186.492632 
L 188.237727 186.492632 
z
" style="fill:#1f77b4;"/>
   </g>
   <g id="patch_52">
    <path clip-path="url(#p22bc565456)" d="M 191.281364 224.64 
L 194.325 224.64 
L 194.325 181.043008 
L 191.281364 181.043008 
z
" style="fill:#1f77b4;"/>
   </g>
   <g id="patch_53">
    <path clip-path="url(#p22bc565456)" d="M 194.325 224.64 
L 197.368636 224.64 
L 197.368636 191.942256 
L 194.325 191.942256 
z
" style="fill:#1f77b4;"/>
   </g>
   <g id="patch_54">
    <path clip-path="url(#p22bc565456)" d="M 197.368636 224.64 
L 200.412273 224.64 
L 200.412273 213.740752 
L 197.368636 213.740752 
z
" style="fill:#1f77b4;"/>
   </g>
   <g id="patch_55">
    <path clip-path="url(#p22bc565456)" d="M 200.412273 224.64 
L 203.455909 224.64 
L 203.455909 164.694135 
L 200.412273 164.694135 
z
" style="fill:#1f77b4;"/>
   </g>
   <g id="patch_56">
    <path clip-path="url(#p22bc565456)" d="M 203.455909 224.64 
L 206.499545 224.64 
L 206.499545 213.740752 
L 203.455909 213.740752 
z
" style="fill:#1f77b4;"/>
   </g>
   <g id="patch_57">
    <path clip-path="url(#p22bc565456)" d="M 206.499545 224.64 
L 209.543182 224.64 
L 209.543182 202.841504 
L 206.499545 202.841504 
z
" style="fill:#1f77b4;"/>
   </g>
   <g id="patch_58">
    <path clip-path="url(#p22bc565456)" d="M 209.543182 224.64 
L 212.586818 224.64 
L 212.586818 202.841504 
L 209.543182 202.841504 
z
" style="fill:#1f77b4;"/>
   </g>
   <g id="patch_59">
    <path clip-path="url(#p22bc565456)" d="M 212.586818 224.64 
L 215.630455 224.64 
L 215.630455 208.291128 
L 212.586818 208.291128 
z
" style="fill:#1f77b4;"/>
   </g>
   <g id="patch_60">
    <path clip-path="url(#p22bc565456)" d="M 215.630455 224.64 
L 218.674091 224.64 
L 218.674091 197.39188 
L 215.630455 197.39188 
z
" style="fill:#1f77b4;"/>
   </g>
   <g id="patch_61">
    <path clip-path="url(#p22bc565456)" d="M 218.674091 224.64 
L 221.717727 224.64 
L 221.717727 213.740752 
L 218.674091 213.740752 
z
" style="fill:#1f77b4;"/>
   </g>
   <g id="patch_62">
    <path clip-path="url(#p22bc565456)" d="M 221.717727 224.64 
L 224.761364 224.64 
L 224.761364 219.190376 
L 221.717727 219.190376 
z
" style="fill:#1f77b4;"/>
   </g>
   <g id="patch_63">
    <path clip-path="url(#p22bc565456)" d="M 224.761364 224.64 
L 227.805 224.64 
L 227.805 213.740752 
L 224.761364 213.740752 
z
" style="fill:#1f77b4;"/>
   </g>
   <g id="patch_64">
    <path clip-path="url(#p22bc565456)" d="M 227.805 224.64 
L 230.848636 224.64 
L 230.848636 213.740752 
L 227.805 213.740752 
z
" style="fill:#1f77b4;"/>
   </g>
   <g id="patch_65">
    <path clip-path="url(#p22bc565456)" d="M 230.848636 224.64 
L 233.892273 224.64 
L 233.892273 213.740752 
L 230.848636 213.740752 
z
" style="fill:#1f77b4;"/>
   </g>
   <g id="patch_66">
    <path clip-path="url(#p22bc565456)" d="M 233.892273 224.64 
L 236.935909 224.64 
L 236.935909 191.942256 
L 233.892273 191.942256 
z
" style="fill:#1f77b4;"/>
   </g>
   <g id="patch_67">
    <path clip-path="url(#p22bc565456)" d="M 236.935909 224.64 
L 239.979545 224.64 
L 239.979545 219.190376 
L 236.935909 219.190376 
z
" style="fill:#1f77b4;"/>
   </g>
   <g id="patch_68">
    <path clip-path="url(#p22bc565456)" d="M 239.979545 224.64 
L 243.023182 224.64 
L 243.023182 202.841504 
L 239.979545 202.841504 
z
" style="fill:#1f77b4;"/>
   </g>
   <g id="patch_69">
    <path clip-path="url(#p22bc565456)" d="M 243.023182 224.64 
L 246.066818 224.64 
L 246.066818 213.740752 
L 243.023182 213.740752 
z
" style="fill:#1f77b4;"/>
   </g>
   <g id="patch_70">
    <path clip-path="url(#p22bc565456)" d="M 246.066818 224.64 
L 249.110455 224.64 
L 249.110455 213.740752 
L 246.066818 213.740752 
z
" style="fill:#1f77b4;"/>
   </g>
   <g id="patch_71">
    <path clip-path="url(#p22bc565456)" d="M 249.110455 224.64 
L 252.154091 224.64 
L 252.154091 224.64 
L 249.110455 224.64 
z
" style="fill:#1f77b4;"/>
   </g>
   <g id="patch_72">
    <path clip-path="url(#p22bc565456)" d="M 252.154091 224.64 
L 255.197727 224.64 
L 255.197727 213.740752 
L 252.154091 213.740752 
z
" style="fill:#1f77b4;"/>
   </g>
   <g id="patch_73">
    <path clip-path="url(#p22bc565456)" d="M 255.197727 224.64 
L 258.241364 224.64 
L 258.241364 219.190376 
L 255.197727 219.190376 
z
" style="fill:#1f77b4;"/>
   </g>
   <g id="patch_74">
    <path clip-path="url(#p22bc565456)" d="M 258.241364 224.64 
L 261.285 224.64 
L 261.285 224.64 
L 258.241364 224.64 
z
" style="fill:#1f77b4;"/>
   </g>
   <g id="patch_75">
    <path clip-path="url(#p22bc565456)" d="M 261.285 224.64 
L 264.328636 224.64 
L 264.328636 224.64 
L 261.285 224.64 
z
" style="fill:#1f77b4;"/>
   </g>
   <g id="patch_76">
    <path clip-path="url(#p22bc565456)" d="M 264.328636 224.64 
L 267.372273 224.64 
L 267.372273 219.190376 
L 264.328636 219.190376 
z
" style="fill:#1f77b4;"/>
   </g>
   <g id="patch_77">
    <path clip-path="url(#p22bc565456)" d="M 267.372273 224.64 
L 270.415909 224.64 
L 270.415909 224.64 
L 267.372273 224.64 
z
" style="fill:#1f77b4;"/>
   </g>
   <g id="patch_78">
    <path clip-path="url(#p22bc565456)" d="M 270.415909 224.64 
L 273.459545 224.64 
L 273.459545 202.841504 
L 270.415909 202.841504 
z
" style="fill:#1f77b4;"/>
   </g>
   <g id="patch_79">
    <path clip-path="url(#p22bc565456)" d="M 273.459545 224.64 
L 276.503182 224.64 
L 276.503182 213.740752 
L 273.459545 213.740752 
z
" style="fill:#1f77b4;"/>
   </g>
   <g id="patch_80">
    <path clip-path="url(#p22bc565456)" d="M 276.503182 224.64 
L 279.546818 224.64 
L 279.546818 219.190376 
L 276.503182 219.190376 
z
" style="fill:#1f77b4;"/>
   </g>
   <g id="patch_81">
    <path clip-path="url(#p22bc565456)" d="M 279.546818 224.64 
L 282.590455 224.64 
L 282.590455 224.64 
L 279.546818 224.64 
z
" style="fill:#1f77b4;"/>
   </g>
   <g id="patch_82">
    <path clip-path="url(#p22bc565456)" d="M 282.590455 224.64 
L 285.634091 224.64 
L 285.634091 219.190376 
L 282.590455 219.190376 
z
" style="fill:#1f77b4;"/>
   </g>
   <g id="patch_83">
    <path clip-path="url(#p22bc565456)" d="M 285.634091 224.64 
L 288.677727 224.64 
L 288.677727 219.190376 
L 285.634091 219.190376 
z
" style="fill:#1f77b4;"/>
   </g>
   <g id="patch_84">
    <path clip-path="url(#p22bc565456)" d="M 288.677727 224.64 
L 291.721364 224.64 
L 291.721364 219.190376 
L 288.677727 219.190376 
z
" style="fill:#1f77b4;"/>
   </g>
   <g id="patch_85">
    <path clip-path="url(#p22bc565456)" d="M 291.721364 224.64 
L 294.765 224.64 
L 294.765 219.190376 
L 291.721364 219.190376 
z
" style="fill:#1f77b4;"/>
   </g>
   <g id="patch_86">
    <path clip-path="url(#p22bc565456)" d="M 294.765 224.64 
L 297.808636 224.64 
L 297.808636 224.64 
L 294.765 224.64 
z
" style="fill:#1f77b4;"/>
   </g>
   <g id="patch_87">
    <path clip-path="url(#p22bc565456)" d="M 297.808636 224.64 
L 300.852273 224.64 
L 300.852273 224.64 
L 297.808636 224.64 
z
" style="fill:#1f77b4;"/>
   </g>
   <g id="patch_88">
    <path clip-path="url(#p22bc565456)" d="M 300.852273 224.64 
L 303.895909 224.64 
L 303.895909 224.64 
L 300.852273 224.64 
z
" style="fill:#1f77b4;"/>
   </g>
   <g id="patch_89">
    <path clip-path="url(#p22bc565456)" d="M 303.895909 224.64 
L 306.939545 224.64 
L 306.939545 224.64 
L 303.895909 224.64 
z
" style="fill:#1f77b4;"/>
   </g>
   <g id="patch_90">
    <path clip-path="url(#p22bc565456)" d="M 306.939545 224.64 
L 309.983182 224.64 
L 309.983182 219.190376 
L 306.939545 219.190376 
z
" style="fill:#1f77b4;"/>
   </g>
   <g id="patch_91">
    <path clip-path="url(#p22bc565456)" d="M 309.983182 224.64 
L 313.026818 224.64 
L 313.026818 219.190376 
L 309.983182 219.190376 
z
" style="fill:#1f77b4;"/>
   </g>
   <g id="patch_92">
    <path clip-path="url(#p22bc565456)" d="M 313.026818 224.64 
L 316.070455 224.64 
L 316.070455 224.64 
L 313.026818 224.64 
z
" style="fill:#1f77b4;"/>
   </g>
   <g id="patch_93">
    <path clip-path="url(#p22bc565456)" d="M 316.070455 224.64 
L 319.114091 224.64 
L 319.114091 224.64 
L 316.070455 224.64 
z
" style="fill:#1f77b4;"/>
   </g>
   <g id="patch_94">
    <path clip-path="url(#p22bc565456)" d="M 319.114091 224.64 
L 322.157727 224.64 
L 322.157727 224.64 
L 319.114091 224.64 
z
" style="fill:#1f77b4;"/>
   </g>
   <g id="patch_95">
    <path clip-path="url(#p22bc565456)" d="M 322.157727 224.64 
L 325.201364 224.64 
L 325.201364 224.64 
L 322.157727 224.64 
z
" style="fill:#1f77b4;"/>
   </g>
   <g id="patch_96">
    <path clip-path="url(#p22bc565456)" d="M 325.201364 224.64 
L 328.245 224.64 
L 328.245 224.64 
L 325.201364 224.64 
z
" style="fill:#1f77b4;"/>
   </g>
   <g id="patch_97">
    <path clip-path="url(#p22bc565456)" d="M 328.245 224.64 
L 331.288636 224.64 
L 331.288636 224.64 
L 328.245 224.64 
z
" style="fill:#1f77b4;"/>
   </g>
   <g id="patch_98">
    <path clip-path="url(#p22bc565456)" d="M 331.288636 224.64 
L 334.332273 224.64 
L 334.332273 224.64 
L 331.288636 224.64 
z
" style="fill:#1f77b4;"/>
   </g>
   <g id="patch_99">
    <path clip-path="url(#p22bc565456)" d="M 334.332273 224.64 
L 337.375909 224.64 
L 337.375909 224.64 
L 334.332273 224.64 
z
" style="fill:#1f77b4;"/>
   </g>
   <g id="patch_100">
    <path clip-path="url(#p22bc565456)" d="M 337.375909 224.64 
L 340.419545 224.64 
L 340.419545 224.64 
L 337.375909 224.64 
z
" style="fill:#1f77b4;"/>
   </g>
   <g id="patch_101">
    <path clip-path="url(#p22bc565456)" d="M 340.419545 224.64 
L 343.463182 224.64 
L 343.463182 224.64 
L 340.419545 224.64 
z
" style="fill:#1f77b4;"/>
   </g>
   <g id="patch_102">
    <path clip-path="url(#p22bc565456)" d="M 343.463182 224.64 
L 346.506818 224.64 
L 346.506818 219.190376 
L 343.463182 219.190376 
z
" style="fill:#1f77b4;"/>
   </g>
   <g id="matplotlib.axis_1">
    <g id="xtick_1">
     <g id="line2d_1">
      <defs>
       <path d="M 0 0 
L 0 3.5 
" id="m29f57654fc" style="stroke:#000000;stroke-width:0.8;"/>
      </defs>
      <g>
       <use style="stroke:#000000;stroke-width:0.8;" x="68.434626" xlink:href="#m29f57654fc" y="224.64"/>
      </g>
     </g>
     <g id="text_1">
      <!-- 100 -->
      <g transform="translate(58.890876 239.238437)scale(0.1 -0.1)">
       <defs>
        <path d="M 12.40625 8.296875 
L 28.515625 8.296875 
L 28.515625 63.921875 
L 10.984375 60.40625 
L 10.984375 69.390625 
L 28.421875 72.90625 
L 38.28125 72.90625 
L 38.28125 8.296875 
L 54.390625 8.296875 
L 54.390625 0 
L 12.40625 0 
z
" id="DejaVuSans-49"/>
        <path d="M 31.78125 66.40625 
Q 24.171875 66.40625 20.328125 58.90625 
Q 16.5 51.421875 16.5 36.375 
Q 16.5 21.390625 20.328125 13.890625 
Q 24.171875 6.390625 31.78125 6.390625 
Q 39.453125 6.390625 43.28125 13.890625 
Q 47.125 21.390625 47.125 36.375 
Q 47.125 51.421875 43.28125 58.90625 
Q 39.453125 66.40625 31.78125 66.40625 
z
M 31.78125 74.21875 
Q 44.046875 74.21875 50.515625 64.515625 
Q 56.984375 54.828125 56.984375 36.375 
Q 56.984375 17.96875 50.515625 8.265625 
Q 44.046875 -1.421875 31.78125 -1.421875 
Q 19.53125 -1.421875 13.0625 8.265625 
Q 6.59375 17.96875 6.59375 36.375 
Q 6.59375 54.828125 13.0625 64.515625 
Q 19.53125 74.21875 31.78125 74.21875 
z
" id="DejaVuSans-48"/>
       </defs>
       <use xlink:href="#DejaVuSans-49"/>
       <use x="63.623047" xlink:href="#DejaVuSans-48"/>
       <use x="127.246094" xlink:href="#DejaVuSans-48"/>
      </g>
     </g>
    </g>
    <g id="xtick_2">
     <g id="line2d_2">
      <g>
       <use style="stroke:#000000;stroke-width:0.8;" x="111.562792" xlink:href="#m29f57654fc" y="224.64"/>
      </g>
     </g>
     <g id="text_2">
      <!-- 200 -->
      <g transform="translate(102.019042 239.238437)scale(0.1 -0.1)">
       <defs>
        <path d="M 19.1875 8.296875 
L 53.609375 8.296875 
L 53.609375 0 
L 7.328125 0 
L 7.328125 8.296875 
Q 12.9375 14.109375 22.625 23.890625 
Q 32.328125 33.6875 34.8125 36.53125 
Q 39.546875 41.84375 41.421875 45.53125 
Q 43.3125 49.21875 43.3125 52.78125 
Q 43.3125 58.59375 39.234375 62.25 
Q 35.15625 65.921875 28.609375 65.921875 
Q 23.96875 65.921875 18.8125 64.3125 
Q 13.671875 62.703125 7.8125 59.421875 
L 7.8125 69.390625 
Q 13.765625 71.78125 18.9375 73 
Q 24.125 74.21875 28.421875 74.21875 
Q 39.75 74.21875 46.484375 68.546875 
Q 53.21875 62.890625 53.21875 53.421875 
Q 53.21875 48.921875 51.53125 44.890625 
Q 49.859375 40.875 45.40625 35.40625 
Q 44.1875 33.984375 37.640625 27.21875 
Q 31.109375 20.453125 19.1875 8.296875 
z
" id="DejaVuSans-50"/>
       </defs>
       <use xlink:href="#DejaVuSans-50"/>
       <use x="63.623047" xlink:href="#DejaVuSans-48"/>
       <use x="127.246094" xlink:href="#DejaVuSans-48"/>
      </g>
     </g>
    </g>
    <g id="xtick_3">
     <g id="line2d_3">
      <g>
       <use style="stroke:#000000;stroke-width:0.8;" x="154.690958" xlink:href="#m29f57654fc" y="224.64"/>
      </g>
     </g>
     <g id="text_3">
      <!-- 300 -->
      <g transform="translate(145.147208 239.238437)scale(0.1 -0.1)">
       <defs>
        <path d="M 40.578125 39.3125 
Q 47.65625 37.796875 51.625 33 
Q 55.609375 28.21875 55.609375 21.1875 
Q 55.609375 10.40625 48.1875 4.484375 
Q 40.765625 -1.421875 27.09375 -1.421875 
Q 22.515625 -1.421875 17.65625 -0.515625 
Q 12.796875 0.390625 7.625 2.203125 
L 7.625 11.71875 
Q 11.71875 9.328125 16.59375 8.109375 
Q 21.484375 6.890625 26.8125 6.890625 
Q 36.078125 6.890625 40.9375 10.546875 
Q 45.796875 14.203125 45.796875 21.1875 
Q 45.796875 27.640625 41.28125 31.265625 
Q 36.765625 34.90625 28.71875 34.90625 
L 20.21875 34.90625 
L 20.21875 43.015625 
L 29.109375 43.015625 
Q 36.375 43.015625 40.234375 45.921875 
Q 44.09375 48.828125 44.09375 54.296875 
Q 44.09375 59.90625 40.109375 62.90625 
Q 36.140625 65.921875 28.71875 65.921875 
Q 24.65625 65.921875 20.015625 65.03125 
Q 15.375 64.15625 9.8125 62.3125 
L 9.8125 71.09375 
Q 15.4375 72.65625 20.34375 73.4375 
Q 25.25 74.21875 29.59375 74.21875 
Q 40.828125 74.21875 47.359375 69.109375 
Q 53.90625 64.015625 53.90625 55.328125 
Q 53.90625 49.265625 50.4375 45.09375 
Q 46.96875 40.921875 40.578125 39.3125 
z
" id="DejaVuSans-51"/>
       </defs>
       <use xlink:href="#DejaVuSans-51"/>
       <use x="63.623047" xlink:href="#DejaVuSans-48"/>
       <use x="127.246094" xlink:href="#DejaVuSans-48"/>
      </g>
     </g>
    </g>
    <g id="xtick_4">
     <g id="line2d_4">
      <g>
       <use style="stroke:#000000;stroke-width:0.8;" x="197.819124" xlink:href="#m29f57654fc" y="224.64"/>
      </g>
     </g>
     <g id="text_4">
      <!-- 400 -->
      <g transform="translate(188.275374 239.238437)scale(0.1 -0.1)">
       <defs>
        <path d="M 37.796875 64.3125 
L 12.890625 25.390625 
L 37.796875 25.390625 
z
M 35.203125 72.90625 
L 47.609375 72.90625 
L 47.609375 25.390625 
L 58.015625 25.390625 
L 58.015625 17.1875 
L 47.609375 17.1875 
L 47.609375 0 
L 37.796875 0 
L 37.796875 17.1875 
L 4.890625 17.1875 
L 4.890625 26.703125 
z
" id="DejaVuSans-52"/>
       </defs>
       <use xlink:href="#DejaVuSans-52"/>
       <use x="63.623047" xlink:href="#DejaVuSans-48"/>
       <use x="127.246094" xlink:href="#DejaVuSans-48"/>
      </g>
     </g>
    </g>
    <g id="xtick_5">
     <g id="line2d_5">
      <g>
       <use style="stroke:#000000;stroke-width:0.8;" x="240.94729" xlink:href="#m29f57654fc" y="224.64"/>
      </g>
     </g>
     <g id="text_5">
      <!-- 500 -->
      <g transform="translate(231.40354 239.238437)scale(0.1 -0.1)">
       <defs>
        <path d="M 10.796875 72.90625 
L 49.515625 72.90625 
L 49.515625 64.59375 
L 19.828125 64.59375 
L 19.828125 46.734375 
Q 21.96875 47.46875 24.109375 47.828125 
Q 26.265625 48.1875 28.421875 48.1875 
Q 40.625 48.1875 47.75 41.5 
Q 54.890625 34.8125 54.890625 23.390625 
Q 54.890625 11.625 47.5625 5.09375 
Q 40.234375 -1.421875 26.90625 -1.421875 
Q 22.3125 -1.421875 17.546875 -0.640625 
Q 12.796875 0.140625 7.71875 1.703125 
L 7.71875 11.625 
Q 12.109375 9.234375 16.796875 8.0625 
Q 21.484375 6.890625 26.703125 6.890625 
Q 35.15625 6.890625 40.078125 11.328125 
Q 45.015625 15.765625 45.015625 23.390625 
Q 45.015625 31 40.078125 35.4375 
Q 35.15625 39.890625 26.703125 39.890625 
Q 22.75 39.890625 18.8125 39.015625 
Q 14.890625 38.140625 10.796875 36.28125 
z
" id="DejaVuSans-53"/>
       </defs>
       <use xlink:href="#DejaVuSans-53"/>
       <use x="63.623047" xlink:href="#DejaVuSans-48"/>
       <use x="127.246094" xlink:href="#DejaVuSans-48"/>
      </g>
     </g>
    </g>
    <g id="xtick_6">
     <g id="line2d_6">
      <g>
       <use style="stroke:#000000;stroke-width:0.8;" x="284.075456" xlink:href="#m29f57654fc" y="224.64"/>
      </g>
     </g>
     <g id="text_6">
      <!-- 600 -->
      <g transform="translate(274.531706 239.238437)scale(0.1 -0.1)">
       <defs>
        <path d="M 33.015625 40.375 
Q 26.375 40.375 22.484375 35.828125 
Q 18.609375 31.296875 18.609375 23.390625 
Q 18.609375 15.53125 22.484375 10.953125 
Q 26.375 6.390625 33.015625 6.390625 
Q 39.65625 6.390625 43.53125 10.953125 
Q 47.40625 15.53125 47.40625 23.390625 
Q 47.40625 31.296875 43.53125 35.828125 
Q 39.65625 40.375 33.015625 40.375 
z
M 52.59375 71.296875 
L 52.59375 62.3125 
Q 48.875 64.0625 45.09375 64.984375 
Q 41.3125 65.921875 37.59375 65.921875 
Q 27.828125 65.921875 22.671875 59.328125 
Q 17.53125 52.734375 16.796875 39.40625 
Q 19.671875 43.65625 24.015625 45.921875 
Q 28.375 48.1875 33.59375 48.1875 
Q 44.578125 48.1875 50.953125 41.515625 
Q 57.328125 34.859375 57.328125 23.390625 
Q 57.328125 12.15625 50.6875 5.359375 
Q 44.046875 -1.421875 33.015625 -1.421875 
Q 20.359375 -1.421875 13.671875 8.265625 
Q 6.984375 17.96875 6.984375 36.375 
Q 6.984375 53.65625 15.1875 63.9375 
Q 23.390625 74.21875 37.203125 74.21875 
Q 40.921875 74.21875 44.703125 73.484375 
Q 48.484375 72.75 52.59375 71.296875 
z
" id="DejaVuSans-54"/>
       </defs>
       <use xlink:href="#DejaVuSans-54"/>
       <use x="63.623047" xlink:href="#DejaVuSans-48"/>
       <use x="127.246094" xlink:href="#DejaVuSans-48"/>
      </g>
     </g>
    </g>
    <g id="xtick_7">
     <g id="line2d_7">
      <g>
       <use style="stroke:#000000;stroke-width:0.8;" x="327.203622" xlink:href="#m29f57654fc" y="224.64"/>
      </g>
     </g>
     <g id="text_7">
      <!-- 700 -->
      <g transform="translate(317.659872 239.238437)scale(0.1 -0.1)">
       <defs>
        <path d="M 8.203125 72.90625 
L 55.078125 72.90625 
L 55.078125 68.703125 
L 28.609375 0 
L 18.3125 0 
L 43.21875 64.59375 
L 8.203125 64.59375 
z
" id="DejaVuSans-55"/>
       </defs>
       <use xlink:href="#DejaVuSans-55"/>
       <use x="63.623047" xlink:href="#DejaVuSans-48"/>
       <use x="127.246094" xlink:href="#DejaVuSans-48"/>
      </g>
     </g>
    </g>
   </g>
   <g id="matplotlib.axis_2">
    <g id="ytick_1">
     <g id="line2d_8">
      <defs>
       <path d="M 0 0 
L -3.5 0 
" id="m8a10ea4261" style="stroke:#000000;stroke-width:0.8;"/>
      </defs>
      <g>
       <use style="stroke:#000000;stroke-width:0.8;" x="26.925" xlink:href="#m8a10ea4261" y="224.64"/>
      </g>
     </g>
     <g id="text_8">
      <!-- 0 -->
      <g transform="translate(13.5625 228.439219)scale(0.1 -0.1)">
       <use xlink:href="#DejaVuSans-48"/>
      </g>
     </g>
    </g>
    <g id="ytick_2">
     <g id="line2d_9">
      <g>
       <use style="stroke:#000000;stroke-width:0.8;" x="26.925" xlink:href="#m8a10ea4261" y="197.39188"/>
      </g>
     </g>
     <g id="text_9">
      <!-- 5 -->
      <g transform="translate(13.5625 201.191098)scale(0.1 -0.1)">
       <use xlink:href="#DejaVuSans-53"/>
      </g>
     </g>
    </g>
    <g id="ytick_3">
     <g id="line2d_10">
      <g>
       <use style="stroke:#000000;stroke-width:0.8;" x="26.925" xlink:href="#m8a10ea4261" y="170.143759"/>
      </g>
     </g>
     <g id="text_10">
      <!-- 10 -->
      <g transform="translate(7.2 173.942978)scale(0.1 -0.1)">
       <use xlink:href="#DejaVuSans-49"/>
       <use x="63.623047" xlink:href="#DejaVuSans-48"/>
      </g>
     </g>
    </g>
    <g id="ytick_4">
     <g id="line2d_11">
      <g>
       <use style="stroke:#000000;stroke-width:0.8;" x="26.925" xlink:href="#m8a10ea4261" y="142.895639"/>
      </g>
     </g>
     <g id="text_11">
      <!-- 15 -->
      <g transform="translate(7.2 146.694858)scale(0.1 -0.1)">
       <use xlink:href="#DejaVuSans-49"/>
       <use x="63.623047" xlink:href="#DejaVuSans-53"/>
      </g>
     </g>
    </g>
    <g id="ytick_5">
     <g id="line2d_12">
      <g>
       <use style="stroke:#000000;stroke-width:0.8;" x="26.925" xlink:href="#m8a10ea4261" y="115.647519"/>
      </g>
     </g>
     <g id="text_12">
      <!-- 20 -->
      <g transform="translate(7.2 119.446738)scale(0.1 -0.1)">
       <use xlink:href="#DejaVuSans-50"/>
       <use x="63.623047" xlink:href="#DejaVuSans-48"/>
      </g>
     </g>
    </g>
    <g id="ytick_6">
     <g id="line2d_13">
      <g>
       <use style="stroke:#000000;stroke-width:0.8;" x="26.925" xlink:href="#m8a10ea4261" y="88.399398"/>
      </g>
     </g>
     <g id="text_13">
      <!-- 25 -->
      <g transform="translate(7.2 92.198617)scale(0.1 -0.1)">
       <use xlink:href="#DejaVuSans-50"/>
       <use x="63.623047" xlink:href="#DejaVuSans-53"/>
      </g>
     </g>
    </g>
    <g id="ytick_7">
     <g id="line2d_14">
      <g>
       <use style="stroke:#000000;stroke-width:0.8;" x="26.925" xlink:href="#m8a10ea4261" y="61.151278"/>
      </g>
     </g>
     <g id="text_14">
      <!-- 30 -->
      <g transform="translate(7.2 64.950497)scale(0.1 -0.1)">
       <use xlink:href="#DejaVuSans-51"/>
       <use x="63.623047" xlink:href="#DejaVuSans-48"/>
      </g>
     </g>
    </g>
    <g id="ytick_8">
     <g id="line2d_15">
      <g>
       <use style="stroke:#000000;stroke-width:0.8;" x="26.925" xlink:href="#m8a10ea4261" y="33.903158"/>
      </g>
     </g>
     <g id="text_15">
      <!-- 35 -->
      <g transform="translate(7.2 37.702377)scale(0.1 -0.1)">
       <use xlink:href="#DejaVuSans-51"/>
       <use x="63.623047" xlink:href="#DejaVuSans-53"/>
      </g>
     </g>
    </g>
   </g>
   <g id="patch_103">
    <path d="M 26.925 224.64 
L 26.925 7.2 
" style="fill:none;stroke:#000000;stroke-linecap:square;stroke-linejoin:miter;stroke-width:0.8;"/>
   </g>
   <g id="patch_104">
    <path d="M 361.725 224.64 
L 361.725 7.2 
" style="fill:none;stroke:#000000;stroke-linecap:square;stroke-linejoin:miter;stroke-width:0.8;"/>
   </g>
   <g id="patch_105">
    <path d="M 26.925 224.64 
L 361.725 224.64 
" style="fill:none;stroke:#000000;stroke-linecap:square;stroke-linejoin:miter;stroke-width:0.8;"/>
   </g>
   <g id="patch_106">
    <path d="M 26.925 7.2 
L 361.725 7.2 
" style="fill:none;stroke:#000000;stroke-linecap:square;stroke-linejoin:miter;stroke-width:0.8;"/>
   </g>
  </g>
 </g>
 <defs>
  <clipPath id="p22bc565456">
   <rect height="217.44" width="334.8" x="26.925" y="7.2"/>
  </clipPath>
 </defs>
</svg>
