<?xml version="1.0" encoding="utf-8" standalone="no"?>
<!DOCTYPE svg PUBLIC "-//W3C//DTD SVG 1.1//EN"
  "http://www.w3.org/Graphics/SVG/1.1/DTD/svg11.dtd">
<!-- Created with matplotlib (https://matplotlib.org/) -->
<svg height="252.317344pt" version="1.1" viewBox="0 0 375.2875 252.317344" width="375.2875pt" xmlns="http://www.w3.org/2000/svg" xmlns:xlink="http://www.w3.org/1999/xlink">
 <metadata>
  <rdf:RDF xmlns:cc="http://creativecommons.org/ns#" xmlns:dc="http://purl.org/dc/elements/1.1/" xmlns:rdf="http://www.w3.org/1999/02/22-rdf-syntax-ns#">
   <cc:Work>
    <dc:type rdf:resource="http://purl.org/dc/dcmitype/StillImage"/>
    <dc:date>2021-01-21T11:45:27.192819</dc:date>
    <dc:format>image/svg+xml</dc:format>
    <dc:creator>
     <cc:Agent>
      <dc:title>Matplotlib v3.3.2, https://matplotlib.org/</dc:title>
     </cc:Agent>
    </dc:creator>
   </cc:Work>
  </rdf:RDF>
 </metadata>
 <defs>
  <style type="text/css">*{stroke-linecap:butt;stroke-linejoin:round;}</style>
 </defs>
 <g id="figure_1">
  <g id="patch_1">
   <path d="M 0 252.317344 
L 375.2875 252.317344 
L 375.2875 0 
L 0 0 
z
" style="fill:none;"/>
  </g>
  <g id="axes_1">
   <g id="patch_2">
    <path d="M 33.2875 228.439219 
L 185.469318 228.439219 
L 185.469318 10.999219 
L 33.2875 10.999219 
z
" style="fill:#ffffff;"/>
   </g>
   <g id="patch_3">
    <path clip-path="url(#p86b9c175f4)" d="M 40.204855 228.439219 
L 42.971798 228.439219 
L 42.971798 227.352019 
L 40.204855 227.352019 
z
" style="fill:#1f77b4;"/>
   </g>
   <g id="patch_4">
    <path clip-path="url(#p86b9c175f4)" d="M 42.971798 228.439219 
L 45.73874 228.439219 
L 45.73874 225.177619 
L 42.971798 225.177619 
z
" style="fill:#1f77b4;"/>
   </g>
   <g id="patch_5">
    <path clip-path="url(#p86b9c175f4)" d="M 45.73874 228.439219 
L 48.505682 228.439219 
L 48.505682 226.264819 
L 45.73874 226.264819 
z
" style="fill:#1f77b4;"/>
   </g>
   <g id="patch_6">
    <path clip-path="url(#p86b9c175f4)" d="M 48.505682 228.439219 
L 51.272624 228.439219 
L 51.272624 221.916019 
L 48.505682 221.916019 
z
" style="fill:#1f77b4;"/>
   </g>
   <g id="patch_7">
    <path clip-path="url(#p86b9c175f4)" d="M 51.272624 228.439219 
L 54.039566 228.439219 
L 54.039566 224.090419 
L 51.272624 224.090419 
z
" style="fill:#1f77b4;"/>
   </g>
   <g id="patch_8">
    <path clip-path="url(#p86b9c175f4)" d="M 54.039566 228.439219 
L 56.806508 228.439219 
L 56.806508 221.916019 
L 54.039566 221.916019 
z
" style="fill:#1f77b4;"/>
   </g>
   <g id="patch_9">
    <path clip-path="url(#p86b9c175f4)" d="M 56.806508 228.439219 
L 59.57345 228.439219 
L 59.57345 219.741619 
L 56.806508 219.741619 
z
" style="fill:#1f77b4;"/>
   </g>
   <g id="patch_10">
    <path clip-path="url(#p86b9c175f4)" d="M 59.57345 228.439219 
L 62.340393 228.439219 
L 62.340393 220.828819 
L 59.57345 220.828819 
z
" style="fill:#1f77b4;"/>
   </g>
   <g id="patch_11">
    <path clip-path="url(#p86b9c175f4)" d="M 62.340393 228.439219 
L 65.107335 228.439219 
L 65.107335 217.567219 
L 62.340393 217.567219 
z
" style="fill:#1f77b4;"/>
   </g>
   <g id="patch_12">
    <path clip-path="url(#p86b9c175f4)" d="M 65.107335 228.439219 
L 67.874277 228.439219 
L 67.874277 215.392819 
L 65.107335 215.392819 
z
" style="fill:#1f77b4;"/>
   </g>
   <g id="patch_13">
    <path clip-path="url(#p86b9c175f4)" d="M 67.874277 228.439219 
L 70.641219 228.439219 
L 70.641219 208.869619 
L 67.874277 208.869619 
z
" style="fill:#1f77b4;"/>
   </g>
   <g id="patch_14">
    <path clip-path="url(#p86b9c175f4)" d="M 70.641219 228.439219 
L 73.408161 228.439219 
L 73.408161 218.654419 
L 70.641219 218.654419 
z
" style="fill:#1f77b4;"/>
   </g>
   <g id="patch_15">
    <path clip-path="url(#p86b9c175f4)" d="M 73.408161 228.439219 
L 76.175103 228.439219 
L 76.175103 216.480019 
L 73.408161 216.480019 
z
" style="fill:#1f77b4;"/>
   </g>
   <g id="patch_16">
    <path clip-path="url(#p86b9c175f4)" d="M 76.175103 228.439219 
L 78.942045 228.439219 
L 78.942045 214.305619 
L 76.175103 214.305619 
z
" style="fill:#1f77b4;"/>
   </g>
   <g id="patch_17">
    <path clip-path="url(#p86b9c175f4)" d="M 78.942045 228.439219 
L 81.708988 228.439219 
L 81.708988 194.736019 
L 78.942045 194.736019 
z
" style="fill:#1f77b4;"/>
   </g>
   <g id="patch_18">
    <path clip-path="url(#p86b9c175f4)" d="M 81.708988 228.439219 
L 84.47593 228.439219 
L 84.47593 193.648819 
L 81.708988 193.648819 
z
" style="fill:#1f77b4;"/>
   </g>
   <g id="patch_19">
    <path clip-path="url(#p86b9c175f4)" d="M 84.47593 228.439219 
L 87.242872 228.439219 
L 87.242872 206.695219 
L 84.47593 206.695219 
z
" style="fill:#1f77b4;"/>
   </g>
   <g id="patch_20">
    <path clip-path="url(#p86b9c175f4)" d="M 87.242872 228.439219 
L 90.009814 228.439219 
L 90.009814 203.433619 
L 87.242872 203.433619 
z
" style="fill:#1f77b4;"/>
   </g>
   <g id="patch_21">
    <path clip-path="url(#p86b9c175f4)" d="M 90.009814 228.439219 
L 92.776756 228.439219 
L 92.776756 194.736019 
L 90.009814 194.736019 
z
" style="fill:#1f77b4;"/>
   </g>
   <g id="patch_22">
    <path clip-path="url(#p86b9c175f4)" d="M 92.776756 228.439219 
L 95.543698 228.439219 
L 95.543698 197.997619 
L 92.776756 197.997619 
z
" style="fill:#1f77b4;"/>
   </g>
   <g id="patch_23">
    <path clip-path="url(#p86b9c175f4)" d="M 95.543698 228.439219 
L 98.31064 228.439219 
L 98.31064 205.608019 
L 95.543698 205.608019 
z
" style="fill:#1f77b4;"/>
   </g>
   <g id="patch_24">
    <path clip-path="url(#p86b9c175f4)" d="M 98.31064 228.439219 
L 101.077583 228.439219 
L 101.077583 192.561619 
L 98.31064 192.561619 
z
" style="fill:#1f77b4;"/>
   </g>
   <g id="patch_25">
    <path clip-path="url(#p86b9c175f4)" d="M 101.077583 228.439219 
L 103.844525 228.439219 
L 103.844525 201.259219 
L 101.077583 201.259219 
z
" style="fill:#1f77b4;"/>
   </g>
   <g id="patch_26">
    <path clip-path="url(#p86b9c175f4)" d="M 103.844525 228.439219 
L 106.611467 228.439219 
L 106.611467 193.648819 
L 103.844525 193.648819 
z
" style="fill:#1f77b4;"/>
   </g>
   <g id="patch_27">
    <path clip-path="url(#p86b9c175f4)" d="M 106.611467 228.439219 
L 109.378409 228.439219 
L 109.378409 176.253619 
L 106.611467 176.253619 
z
" style="fill:#1f77b4;"/>
   </g>
   <g id="patch_28">
    <path clip-path="url(#p86b9c175f4)" d="M 109.378409 228.439219 
L 112.145351 228.439219 
L 112.145351 164.294419 
L 109.378409 164.294419 
z
" style="fill:#1f77b4;"/>
   </g>
   <g id="patch_29">
    <path clip-path="url(#p86b9c175f4)" d="M 112.145351 228.439219 
L 114.912293 228.439219 
L 114.912293 175.166419 
L 112.145351 175.166419 
z
" style="fill:#1f77b4;"/>
   </g>
   <g id="patch_30">
    <path clip-path="url(#p86b9c175f4)" d="M 114.912293 228.439219 
L 117.679236 228.439219 
L 117.679236 143.637619 
L 114.912293 143.637619 
z
" style="fill:#1f77b4;"/>
   </g>
   <g id="patch_31">
    <path clip-path="url(#p86b9c175f4)" d="M 117.679236 228.439219 
L 120.446178 228.439219 
L 120.446178 147.986419 
L 117.679236 147.986419 
z
" style="fill:#1f77b4;"/>
   </g>
   <g id="patch_32">
    <path clip-path="url(#p86b9c175f4)" d="M 120.446178 228.439219 
L 123.21312 228.439219 
L 123.21312 153.422419 
L 120.446178 153.422419 
z
" style="fill:#1f77b4;"/>
   </g>
   <g id="patch_33">
    <path clip-path="url(#p86b9c175f4)" d="M 123.21312 228.439219 
L 125.980062 228.439219 
L 125.980062 109.934419 
L 123.21312 109.934419 
z
" style="fill:#1f77b4;"/>
   </g>
   <g id="patch_34">
    <path clip-path="url(#p86b9c175f4)" d="M 125.980062 228.439219 
L 128.747004 228.439219 
L 128.747004 126.242419 
L 125.980062 126.242419 
z
" style="fill:#1f77b4;"/>
   </g>
   <g id="patch_35">
    <path clip-path="url(#p86b9c175f4)" d="M 128.747004 228.439219 
L 131.513946 228.439219 
L 131.513946 136.027219 
L 128.747004 136.027219 
z
" style="fill:#1f77b4;"/>
   </g>
   <g id="patch_36">
    <path clip-path="url(#p86b9c175f4)" d="M 131.513946 228.439219 
L 134.280888 228.439219 
L 134.280888 137.114419 
L 131.513946 137.114419 
z
" style="fill:#1f77b4;"/>
   </g>
   <g id="patch_37">
    <path clip-path="url(#p86b9c175f4)" d="M 134.280888 228.439219 
L 137.047831 228.439219 
L 137.047831 133.852819 
L 134.280888 133.852819 
z
" style="fill:#1f77b4;"/>
   </g>
   <g id="patch_38">
    <path clip-path="url(#p86b9c175f4)" d="M 137.047831 228.439219 
L 139.814773 228.439219 
L 139.814773 163.207219 
L 137.047831 163.207219 
z
" style="fill:#1f77b4;"/>
   </g>
   <g id="patch_39">
    <path clip-path="url(#p86b9c175f4)" d="M 139.814773 228.439219 
L 142.581715 228.439219 
L 142.581715 159.945619 
L 139.814773 159.945619 
z
" style="fill:#1f77b4;"/>
   </g>
   <g id="patch_40">
    <path clip-path="url(#p86b9c175f4)" d="M 142.581715 228.439219 
L 145.348657 228.439219 
L 145.348657 191.474419 
L 142.581715 191.474419 
z
" style="fill:#1f77b4;"/>
   </g>
   <g id="patch_41">
    <path clip-path="url(#p86b9c175f4)" d="M 145.348657 228.439219 
L 148.115599 228.439219 
L 148.115599 187.125619 
L 145.348657 187.125619 
z
" style="fill:#1f77b4;"/>
   </g>
   <g id="patch_42">
    <path clip-path="url(#p86b9c175f4)" d="M 148.115599 228.439219 
L 150.882541 228.439219 
L 150.882541 194.736019 
L 148.115599 194.736019 
z
" style="fill:#1f77b4;"/>
   </g>
   <g id="patch_43">
    <path clip-path="url(#p86b9c175f4)" d="M 150.882541 228.439219 
L 153.649483 228.439219 
L 153.649483 195.823219 
L 150.882541 195.823219 
z
" style="fill:#1f77b4;"/>
   </g>
   <g id="patch_44">
    <path clip-path="url(#p86b9c175f4)" d="M 153.649483 228.439219 
L 156.416426 228.439219 
L 156.416426 206.695219 
L 153.649483 206.695219 
z
" style="fill:#1f77b4;"/>
   </g>
   <g id="patch_45">
    <path clip-path="url(#p86b9c175f4)" d="M 156.416426 228.439219 
L 159.183368 228.439219 
L 159.183368 206.695219 
L 156.416426 206.695219 
z
" style="fill:#1f77b4;"/>
   </g>
   <g id="patch_46">
    <path clip-path="url(#p86b9c175f4)" d="M 159.183368 228.439219 
L 161.95031 228.439219 
L 161.95031 200.172019 
L 159.183368 200.172019 
z
" style="fill:#1f77b4;"/>
   </g>
   <g id="patch_47">
    <path clip-path="url(#p86b9c175f4)" d="M 161.95031 228.439219 
L 164.717252 228.439219 
L 164.717252 207.782419 
L 161.95031 207.782419 
z
" style="fill:#1f77b4;"/>
   </g>
   <g id="patch_48">
    <path clip-path="url(#p86b9c175f4)" d="M 164.717252 228.439219 
L 167.484194 228.439219 
L 167.484194 213.218419 
L 164.717252 213.218419 
z
" style="fill:#1f77b4;"/>
   </g>
   <g id="patch_49">
    <path clip-path="url(#p86b9c175f4)" d="M 167.484194 228.439219 
L 170.251136 228.439219 
L 170.251136 220.828819 
L 167.484194 220.828819 
z
" style="fill:#1f77b4;"/>
   </g>
   <g id="patch_50">
    <path clip-path="url(#p86b9c175f4)" d="M 170.251136 228.439219 
L 173.018079 228.439219 
L 173.018079 221.916019 
L 170.251136 221.916019 
z
" style="fill:#1f77b4;"/>
   </g>
   <g id="patch_51">
    <path clip-path="url(#p86b9c175f4)" d="M 173.018079 228.439219 
L 175.785021 228.439219 
L 175.785021 224.090419 
L 173.018079 224.090419 
z
" style="fill:#1f77b4;"/>
   </g>
   <g id="patch_52">
    <path clip-path="url(#p86b9c175f4)" d="M 175.785021 228.439219 
L 178.551963 228.439219 
L 178.551963 221.916019 
L 175.785021 221.916019 
z
" style="fill:#1f77b4;"/>
   </g>
   <g id="matplotlib.axis_1">
    <g id="xtick_1">
     <g id="line2d_1">
      <defs>
       <path d="M 0 0 
L 0 3.5 
" id="m583b613acc" style="stroke:#000000;stroke-width:0.8;"/>
      </defs>
      <g>
       <use style="stroke:#000000;stroke-width:0.8;" x="74.935395" xlink:href="#m583b613acc" y="228.439219"/>
      </g>
     </g>
     <g id="text_1">
      <!-- −2 -->
      <g transform="translate(67.564302 243.037656)scale(0.1 -0.1)">
       <defs>
        <path d="M 10.59375 35.5 
L 73.1875 35.5 
L 73.1875 27.203125 
L 10.59375 27.203125 
z
" id="DejaVuSans-8722"/>
        <path d="M 19.1875 8.296875 
L 53.609375 8.296875 
L 53.609375 0 
L 7.328125 0 
L 7.328125 8.296875 
Q 12.9375 14.109375 22.625 23.890625 
Q 32.328125 33.6875 34.8125 36.53125 
Q 39.546875 41.84375 41.421875 45.53125 
Q 43.3125 49.21875 43.3125 52.78125 
Q 43.3125 58.59375 39.234375 62.25 
Q 35.15625 65.921875 28.609375 65.921875 
Q 23.96875 65.921875 18.8125 64.3125 
Q 13.671875 62.703125 7.8125 59.421875 
L 7.8125 69.390625 
Q 13.765625 71.78125 18.9375 73 
Q 24.125 74.21875 28.421875 74.21875 
Q 39.75 74.21875 46.484375 68.546875 
Q 53.21875 62.890625 53.21875 53.421875 
Q 53.21875 48.921875 51.53125 44.890625 
Q 49.859375 40.875 45.40625 35.40625 
Q 44.1875 33.984375 37.640625 27.21875 
Q 31.109375 20.453125 19.1875 8.296875 
z
" id="DejaVuSans-50"/>
       </defs>
       <use xlink:href="#DejaVuSans-8722"/>
       <use x="83.789062" xlink:href="#DejaVuSans-50"/>
      </g>
     </g>
    </g>
    <g id="xtick_2">
     <g id="line2d_2">
      <g>
       <use style="stroke:#000000;stroke-width:0.8;" x="121.872067" xlink:href="#m583b613acc" y="228.439219"/>
      </g>
     </g>
     <g id="text_2">
      <!-- 0 -->
      <g transform="translate(118.690817 243.037656)scale(0.1 -0.1)">
       <defs>
        <path d="M 31.78125 66.40625 
Q 24.171875 66.40625 20.328125 58.90625 
Q 16.5 51.421875 16.5 36.375 
Q 16.5 21.390625 20.328125 13.890625 
Q 24.171875 6.390625 31.78125 6.390625 
Q 39.453125 6.390625 43.28125 13.890625 
Q 47.125 21.390625 47.125 36.375 
Q 47.125 51.421875 43.28125 58.90625 
Q 39.453125 66.40625 31.78125 66.40625 
z
M 31.78125 74.21875 
Q 44.046875 74.21875 50.515625 64.515625 
Q 56.984375 54.828125 56.984375 36.375 
Q 56.984375 17.96875 50.515625 8.265625 
Q 44.046875 -1.421875 31.78125 -1.421875 
Q 19.53125 -1.421875 13.0625 8.265625 
Q 6.59375 17.96875 6.59375 36.375 
Q 6.59375 54.828125 13.0625 64.515625 
Q 19.53125 74.21875 31.78125 74.21875 
z
" id="DejaVuSans-48"/>
       </defs>
       <use xlink:href="#DejaVuSans-48"/>
      </g>
     </g>
    </g>
    <g id="xtick_3">
     <g id="line2d_3">
      <g>
       <use style="stroke:#000000;stroke-width:0.8;" x="168.808738" xlink:href="#m583b613acc" y="228.439219"/>
      </g>
     </g>
     <g id="text_3">
      <!-- 2 -->
      <g transform="translate(165.627488 243.037656)scale(0.1 -0.1)">
       <use xlink:href="#DejaVuSans-50"/>
      </g>
     </g>
    </g>
   </g>
   <g id="matplotlib.axis_2">
    <g id="ytick_1">
     <g id="line2d_4">
      <defs>
       <path d="M 0 0 
L -3.5 0 
" id="mc58076f051" style="stroke:#000000;stroke-width:0.8;"/>
      </defs>
      <g>
       <use style="stroke:#000000;stroke-width:0.8;" x="33.2875" xlink:href="#mc58076f051" y="228.439219"/>
      </g>
     </g>
     <g id="text_4">
      <!-- 0 -->
      <g transform="translate(19.925 232.238437)scale(0.1 -0.1)">
       <use xlink:href="#DejaVuSans-48"/>
      </g>
     </g>
    </g>
    <g id="ytick_2">
     <g id="line2d_5">
      <g>
       <use style="stroke:#000000;stroke-width:0.8;" x="33.2875" xlink:href="#mc58076f051" y="201.259219"/>
      </g>
     </g>
     <g id="text_5">
      <!-- 25 -->
      <g transform="translate(13.5625 205.058437)scale(0.1 -0.1)">
       <defs>
        <path d="M 10.796875 72.90625 
L 49.515625 72.90625 
L 49.515625 64.59375 
L 19.828125 64.59375 
L 19.828125 46.734375 
Q 21.96875 47.46875 24.109375 47.828125 
Q 26.265625 48.1875 28.421875 48.1875 
Q 40.625 48.1875 47.75 41.5 
Q 54.890625 34.8125 54.890625 23.390625 
Q 54.890625 11.625 47.5625 5.09375 
Q 40.234375 -1.421875 26.90625 -1.421875 
Q 22.3125 -1.421875 17.546875 -0.640625 
Q 12.796875 0.140625 7.71875 1.703125 
L 7.71875 11.625 
Q 12.109375 9.234375 16.796875 8.0625 
Q 21.484375 6.890625 26.703125 6.890625 
Q 35.15625 6.890625 40.078125 11.328125 
Q 45.015625 15.765625 45.015625 23.390625 
Q 45.015625 31 40.078125 35.4375 
Q 35.15625 39.890625 26.703125 39.890625 
Q 22.75 39.890625 18.8125 39.015625 
Q 14.890625 38.140625 10.796875 36.28125 
z
" id="DejaVuSans-53"/>
       </defs>
       <use xlink:href="#DejaVuSans-50"/>
       <use x="63.623047" xlink:href="#DejaVuSans-53"/>
      </g>
     </g>
    </g>
    <g id="ytick_3">
     <g id="line2d_6">
      <g>
       <use style="stroke:#000000;stroke-width:0.8;" x="33.2875" xlink:href="#mc58076f051" y="174.079219"/>
      </g>
     </g>
     <g id="text_6">
      <!-- 50 -->
      <g transform="translate(13.5625 177.878437)scale(0.1 -0.1)">
       <use xlink:href="#DejaVuSans-53"/>
       <use x="63.623047" xlink:href="#DejaVuSans-48"/>
      </g>
     </g>
    </g>
    <g id="ytick_4">
     <g id="line2d_7">
      <g>
       <use style="stroke:#000000;stroke-width:0.8;" x="33.2875" xlink:href="#mc58076f051" y="146.899219"/>
      </g>
     </g>
     <g id="text_7">
      <!-- 75 -->
      <g transform="translate(13.5625 150.698437)scale(0.1 -0.1)">
       <defs>
        <path d="M 8.203125 72.90625 
L 55.078125 72.90625 
L 55.078125 68.703125 
L 28.609375 0 
L 18.3125 0 
L 43.21875 64.59375 
L 8.203125 64.59375 
z
" id="DejaVuSans-55"/>
       </defs>
       <use xlink:href="#DejaVuSans-55"/>
       <use x="63.623047" xlink:href="#DejaVuSans-53"/>
      </g>
     </g>
    </g>
    <g id="ytick_5">
     <g id="line2d_8">
      <g>
       <use style="stroke:#000000;stroke-width:0.8;" x="33.2875" xlink:href="#mc58076f051" y="119.719219"/>
      </g>
     </g>
     <g id="text_8">
      <!-- 100 -->
      <g transform="translate(7.2 123.518437)scale(0.1 -0.1)">
       <defs>
        <path d="M 12.40625 8.296875 
L 28.515625 8.296875 
L 28.515625 63.921875 
L 10.984375 60.40625 
L 10.984375 69.390625 
L 28.421875 72.90625 
L 38.28125 72.90625 
L 38.28125 8.296875 
L 54.390625 8.296875 
L 54.390625 0 
L 12.40625 0 
z
" id="DejaVuSans-49"/>
       </defs>
       <use xlink:href="#DejaVuSans-49"/>
       <use x="63.623047" xlink:href="#DejaVuSans-48"/>
       <use x="127.246094" xlink:href="#DejaVuSans-48"/>
      </g>
     </g>
    </g>
    <g id="ytick_6">
     <g id="line2d_9">
      <g>
       <use style="stroke:#000000;stroke-width:0.8;" x="33.2875" xlink:href="#mc58076f051" y="92.539219"/>
      </g>
     </g>
     <g id="text_9">
      <!-- 125 -->
      <g transform="translate(7.2 96.338437)scale(0.1 -0.1)">
       <use xlink:href="#DejaVuSans-49"/>
       <use x="63.623047" xlink:href="#DejaVuSans-50"/>
       <use x="127.246094" xlink:href="#DejaVuSans-53"/>
      </g>
     </g>
    </g>
    <g id="ytick_7">
     <g id="line2d_10">
      <g>
       <use style="stroke:#000000;stroke-width:0.8;" x="33.2875" xlink:href="#mc58076f051" y="65.359219"/>
      </g>
     </g>
     <g id="text_10">
      <!-- 150 -->
      <g transform="translate(7.2 69.158437)scale(0.1 -0.1)">
       <use xlink:href="#DejaVuSans-49"/>
       <use x="63.623047" xlink:href="#DejaVuSans-53"/>
       <use x="127.246094" xlink:href="#DejaVuSans-48"/>
      </g>
     </g>
    </g>
    <g id="ytick_8">
     <g id="line2d_11">
      <g>
       <use style="stroke:#000000;stroke-width:0.8;" x="33.2875" xlink:href="#mc58076f051" y="38.179219"/>
      </g>
     </g>
     <g id="text_11">
      <!-- 175 -->
      <g transform="translate(7.2 41.978437)scale(0.1 -0.1)">
       <use xlink:href="#DejaVuSans-49"/>
       <use x="63.623047" xlink:href="#DejaVuSans-55"/>
       <use x="127.246094" xlink:href="#DejaVuSans-53"/>
      </g>
     </g>
    </g>
    <g id="ytick_9">
     <g id="line2d_12">
      <g>
       <use style="stroke:#000000;stroke-width:0.8;" x="33.2875" xlink:href="#mc58076f051" y="10.999219"/>
      </g>
     </g>
     <g id="text_12">
      <!-- 200 -->
      <g transform="translate(7.2 14.798437)scale(0.1 -0.1)">
       <use xlink:href="#DejaVuSans-50"/>
       <use x="63.623047" xlink:href="#DejaVuSans-48"/>
       <use x="127.246094" xlink:href="#DejaVuSans-48"/>
      </g>
     </g>
    </g>
   </g>
   <g id="patch_53">
    <path d="M 33.2875 228.439219 
L 33.2875 10.999219 
" style="fill:none;stroke:#000000;stroke-linecap:square;stroke-linejoin:miter;stroke-width:0.8;"/>
   </g>
   <g id="patch_54">
    <path d="M 185.469318 228.439219 
L 185.469318 10.999219 
" style="fill:none;stroke:#000000;stroke-linecap:square;stroke-linejoin:miter;stroke-width:0.8;"/>
   </g>
   <g id="patch_55">
    <path d="M 33.2875 228.439219 
L 185.469318 228.439219 
" style="fill:none;stroke:#000000;stroke-linecap:square;stroke-linejoin:miter;stroke-width:0.8;"/>
   </g>
   <g id="patch_56">
    <path d="M 33.2875 10.999219 
L 185.469318 10.999219 
" style="fill:none;stroke:#000000;stroke-linecap:square;stroke-linejoin:miter;stroke-width:0.8;"/>
   </g>
  </g>
  <g id="axes_2">
   <g id="patch_57">
    <path d="M 215.905682 228.439219 
L 368.0875 228.439219 
L 368.0875 10.999219 
L 215.905682 10.999219 
z
" style="fill:#ffffff;"/>
   </g>
   <g id="patch_58">
    <path clip-path="url(#p1b1393ef8e)" d="M 222.823037 228.439219 
L 225.589979 228.439219 
L 225.589979 225.177619 
L 222.823037 225.177619 
z
" style="fill:#1f77b4;"/>
   </g>
   <g id="patch_59">
    <path clip-path="url(#p1b1393ef8e)" d="M 225.589979 228.439219 
L 228.356921 228.439219 
L 228.356921 227.352019 
L 225.589979 227.352019 
z
" style="fill:#1f77b4;"/>
   </g>
   <g id="patch_60">
    <path clip-path="url(#p1b1393ef8e)" d="M 228.356921 228.439219 
L 231.123864 228.439219 
L 231.123864 224.090419 
L 228.356921 224.090419 
z
" style="fill:#1f77b4;"/>
   </g>
   <g id="patch_61">
    <path clip-path="url(#p1b1393ef8e)" d="M 231.123864 228.439219 
L 233.890806 228.439219 
L 233.890806 228.439219 
L 231.123864 228.439219 
z
" style="fill:#1f77b4;"/>
   </g>
   <g id="patch_62">
    <path clip-path="url(#p1b1393ef8e)" d="M 233.890806 228.439219 
L 236.657748 228.439219 
L 236.657748 223.003219 
L 233.890806 223.003219 
z
" style="fill:#1f77b4;"/>
   </g>
   <g id="patch_63">
    <path clip-path="url(#p1b1393ef8e)" d="M 236.657748 228.439219 
L 239.42469 228.439219 
L 239.42469 227.352019 
L 236.657748 227.352019 
z
" style="fill:#1f77b4;"/>
   </g>
   <g id="patch_64">
    <path clip-path="url(#p1b1393ef8e)" d="M 239.42469 228.439219 
L 242.191632 228.439219 
L 242.191632 225.177619 
L 239.42469 225.177619 
z
" style="fill:#1f77b4;"/>
   </g>
   <g id="patch_65">
    <path clip-path="url(#p1b1393ef8e)" d="M 242.191632 228.439219 
L 244.958574 228.439219 
L 244.958574 225.177619 
L 242.191632 225.177619 
z
" style="fill:#1f77b4;"/>
   </g>
   <g id="patch_66">
    <path clip-path="url(#p1b1393ef8e)" d="M 244.958574 228.439219 
L 247.725517 228.439219 
L 247.725517 225.177619 
L 244.958574 225.177619 
z
" style="fill:#1f77b4;"/>
   </g>
   <g id="patch_67">
    <path clip-path="url(#p1b1393ef8e)" d="M 247.725517 228.439219 
L 250.492459 228.439219 
L 250.492459 224.090419 
L 247.725517 224.090419 
z
" style="fill:#1f77b4;"/>
   </g>
   <g id="patch_68">
    <path clip-path="url(#p1b1393ef8e)" d="M 250.492459 228.439219 
L 253.259401 228.439219 
L 253.259401 223.003219 
L 250.492459 223.003219 
z
" style="fill:#1f77b4;"/>
   </g>
   <g id="patch_69">
    <path clip-path="url(#p1b1393ef8e)" d="M 253.259401 228.439219 
L 256.026343 228.439219 
L 256.026343 226.264819 
L 253.259401 226.264819 
z
" style="fill:#1f77b4;"/>
   </g>
   <g id="patch_70">
    <path clip-path="url(#p1b1393ef8e)" d="M 256.026343 228.439219 
L 258.793285 228.439219 
L 258.793285 224.090419 
L 256.026343 224.090419 
z
" style="fill:#1f77b4;"/>
   </g>
   <g id="patch_71">
    <path clip-path="url(#p1b1393ef8e)" d="M 258.793285 228.439219 
L 261.560227 228.439219 
L 261.560227 223.003219 
L 258.793285 223.003219 
z
" style="fill:#1f77b4;"/>
   </g>
   <g id="patch_72">
    <path clip-path="url(#p1b1393ef8e)" d="M 261.560227 228.439219 
L 264.327169 228.439219 
L 264.327169 218.654419 
L 261.560227 218.654419 
z
" style="fill:#1f77b4;"/>
   </g>
   <g id="patch_73">
    <path clip-path="url(#p1b1393ef8e)" d="M 264.327169 228.439219 
L 267.094112 228.439219 
L 267.094112 221.916019 
L 264.327169 221.916019 
z
" style="fill:#1f77b4;"/>
   </g>
   <g id="patch_74">
    <path clip-path="url(#p1b1393ef8e)" d="M 267.094112 228.439219 
L 269.861054 228.439219 
L 269.861054 223.003219 
L 267.094112 223.003219 
z
" style="fill:#1f77b4;"/>
   </g>
   <g id="patch_75">
    <path clip-path="url(#p1b1393ef8e)" d="M 269.861054 228.439219 
L 272.627996 228.439219 
L 272.627996 221.916019 
L 269.861054 221.916019 
z
" style="fill:#1f77b4;"/>
   </g>
   <g id="patch_76">
    <path clip-path="url(#p1b1393ef8e)" d="M 272.627996 228.439219 
L 275.394938 228.439219 
L 275.394938 218.654419 
L 272.627996 218.654419 
z
" style="fill:#1f77b4;"/>
   </g>
   <g id="patch_77">
    <path clip-path="url(#p1b1393ef8e)" d="M 275.394938 228.439219 
L 278.16188 228.439219 
L 278.16188 217.567219 
L 275.394938 217.567219 
z
" style="fill:#1f77b4;"/>
   </g>
   <g id="patch_78">
    <path clip-path="url(#p1b1393ef8e)" d="M 278.16188 228.439219 
L 280.928822 228.439219 
L 280.928822 211.044019 
L 278.16188 211.044019 
z
" style="fill:#1f77b4;"/>
   </g>
   <g id="patch_79">
    <path clip-path="url(#p1b1393ef8e)" d="M 280.928822 228.439219 
L 283.695764 228.439219 
L 283.695764 199.084819 
L 280.928822 199.084819 
z
" style="fill:#1f77b4;"/>
   </g>
   <g id="patch_80">
    <path clip-path="url(#p1b1393ef8e)" d="M 283.695764 228.439219 
L 286.462707 228.439219 
L 286.462707 194.736019 
L 283.695764 194.736019 
z
" style="fill:#1f77b4;"/>
   </g>
   <g id="patch_81">
    <path clip-path="url(#p1b1393ef8e)" d="M 286.462707 228.439219 
L 289.229649 228.439219 
L 289.229649 203.433619 
L 286.462707 203.433619 
z
" style="fill:#1f77b4;"/>
   </g>
   <g id="patch_82">
    <path clip-path="url(#p1b1393ef8e)" d="M 289.229649 228.439219 
L 291.996591 228.439219 
L 291.996591 171.904819 
L 289.229649 171.904819 
z
" style="fill:#1f77b4;"/>
   </g>
   <g id="patch_83">
    <path clip-path="url(#p1b1393ef8e)" d="M 291.996591 228.439219 
L 294.763533 228.439219 
L 294.763533 172.992019 
L 291.996591 172.992019 
z
" style="fill:#1f77b4;"/>
   </g>
   <g id="patch_84">
    <path clip-path="url(#p1b1393ef8e)" d="M 294.763533 228.439219 
L 297.530475 228.439219 
L 297.530475 165.381619 
L 294.763533 165.381619 
z
" style="fill:#1f77b4;"/>
   </g>
   <g id="patch_85">
    <path clip-path="url(#p1b1393ef8e)" d="M 297.530475 228.439219 
L 300.297417 228.439219 
L 300.297417 171.904819 
L 297.530475 171.904819 
z
" style="fill:#1f77b4;"/>
   </g>
   <g id="patch_86">
    <path clip-path="url(#p1b1393ef8e)" d="M 300.297417 228.439219 
L 303.06436 228.439219 
L 303.06436 161.032819 
L 300.297417 161.032819 
z
" style="fill:#1f77b4;"/>
   </g>
   <g id="patch_87">
    <path clip-path="url(#p1b1393ef8e)" d="M 303.06436 228.439219 
L 305.831302 228.439219 
L 305.831302 97.975219 
L 303.06436 97.975219 
z
" style="fill:#1f77b4;"/>
   </g>
   <g id="patch_88">
    <path clip-path="url(#p1b1393ef8e)" d="M 305.831302 228.439219 
L 308.598244 228.439219 
L 308.598244 93.626419 
L 305.831302 93.626419 
z
" style="fill:#1f77b4;"/>
   </g>
   <g id="patch_89">
    <path clip-path="url(#p1b1393ef8e)" d="M 308.598244 228.439219 
L 311.365186 228.439219 
L 311.365186 49.051219 
L 308.598244 49.051219 
z
" style="fill:#1f77b4;"/>
   </g>
   <g id="patch_90">
    <path clip-path="url(#p1b1393ef8e)" d="M 311.365186 228.439219 
L 314.132128 228.439219 
L 314.132128 50.138419 
L 311.365186 50.138419 
z
" style="fill:#1f77b4;"/>
   </g>
   <g id="patch_91">
    <path clip-path="url(#p1b1393ef8e)" d="M 314.132128 228.439219 
L 316.89907 228.439219 
L 316.89907 76.231219 
L 314.132128 76.231219 
z
" style="fill:#1f77b4;"/>
   </g>
   <g id="patch_92">
    <path clip-path="url(#p1b1393ef8e)" d="M 316.89907 228.439219 
L 319.666012 228.439219 
L 319.666012 133.852819 
L 316.89907 133.852819 
z
" style="fill:#1f77b4;"/>
   </g>
   <g id="patch_93">
    <path clip-path="url(#p1b1393ef8e)" d="M 319.666012 228.439219 
L 322.432955 228.439219 
L 322.432955 156.684019 
L 319.666012 156.684019 
z
" style="fill:#1f77b4;"/>
   </g>
   <g id="patch_94">
    <path clip-path="url(#p1b1393ef8e)" d="M 322.432955 228.439219 
L 325.199897 228.439219 
L 325.199897 158.858419 
L 322.432955 158.858419 
z
" style="fill:#1f77b4;"/>
   </g>
   <g id="patch_95">
    <path clip-path="url(#p1b1393ef8e)" d="M 325.199897 228.439219 
L 327.966839 228.439219 
L 327.966839 177.340819 
L 325.199897 177.340819 
z
" style="fill:#1f77b4;"/>
   </g>
   <g id="patch_96">
    <path clip-path="url(#p1b1393ef8e)" d="M 327.966839 228.439219 
L 330.733781 228.439219 
L 330.733781 191.474419 
L 327.966839 191.474419 
z
" style="fill:#1f77b4;"/>
   </g>
   <g id="patch_97">
    <path clip-path="url(#p1b1393ef8e)" d="M 330.733781 228.439219 
L 333.500723 228.439219 
L 333.500723 197.997619 
L 330.733781 197.997619 
z
" style="fill:#1f77b4;"/>
   </g>
   <g id="patch_98">
    <path clip-path="url(#p1b1393ef8e)" d="M 333.500723 228.439219 
L 336.267665 228.439219 
L 336.267665 211.044019 
L 333.500723 211.044019 
z
" style="fill:#1f77b4;"/>
   </g>
   <g id="patch_99">
    <path clip-path="url(#p1b1393ef8e)" d="M 336.267665 228.439219 
L 339.034607 228.439219 
L 339.034607 215.392819 
L 336.267665 215.392819 
z
" style="fill:#1f77b4;"/>
   </g>
   <g id="patch_100">
    <path clip-path="url(#p1b1393ef8e)" d="M 339.034607 228.439219 
L 341.80155 228.439219 
L 341.80155 202.346419 
L 339.034607 202.346419 
z
" style="fill:#1f77b4;"/>
   </g>
   <g id="patch_101">
    <path clip-path="url(#p1b1393ef8e)" d="M 341.80155 228.439219 
L 344.568492 228.439219 
L 344.568492 203.433619 
L 341.80155 203.433619 
z
" style="fill:#1f77b4;"/>
   </g>
   <g id="patch_102">
    <path clip-path="url(#p1b1393ef8e)" d="M 344.568492 228.439219 
L 347.335434 228.439219 
L 347.335434 220.828819 
L 344.568492 220.828819 
z
" style="fill:#1f77b4;"/>
   </g>
   <g id="patch_103">
    <path clip-path="url(#p1b1393ef8e)" d="M 347.335434 228.439219 
L 350.102376 228.439219 
L 350.102376 224.090419 
L 347.335434 224.090419 
z
" style="fill:#1f77b4;"/>
   </g>
   <g id="patch_104">
    <path clip-path="url(#p1b1393ef8e)" d="M 350.102376 228.439219 
L 352.869318 228.439219 
L 352.869318 226.264819 
L 350.102376 226.264819 
z
" style="fill:#1f77b4;"/>
   </g>
   <g id="patch_105">
    <path clip-path="url(#p1b1393ef8e)" d="M 352.869318 228.439219 
L 355.63626 228.439219 
L 355.63626 223.003219 
L 352.869318 223.003219 
z
" style="fill:#1f77b4;"/>
   </g>
   <g id="patch_106">
    <path clip-path="url(#p1b1393ef8e)" d="M 355.63626 228.439219 
L 358.403202 228.439219 
L 358.403202 224.090419 
L 355.63626 224.090419 
z
" style="fill:#1f77b4;"/>
   </g>
   <g id="patch_107">
    <path clip-path="url(#p1b1393ef8e)" d="M 358.403202 228.439219 
L 361.170145 228.439219 
L 361.170145 224.090419 
L 358.403202 224.090419 
z
" style="fill:#1f77b4;"/>
   </g>
   <g id="matplotlib.axis_3">
    <g id="xtick_4">
     <g id="line2d_13">
      <g>
       <use style="stroke:#000000;stroke-width:0.8;" x="256.456314" xlink:href="#m583b613acc" y="228.439219"/>
      </g>
     </g>
     <g id="text_13">
      <!-- −5 -->
      <g transform="translate(249.08522 243.037656)scale(0.1 -0.1)">
       <use xlink:href="#DejaVuSans-8722"/>
       <use x="83.789062" xlink:href="#DejaVuSans-53"/>
      </g>
     </g>
    </g>
    <g id="xtick_5">
     <g id="line2d_14">
      <g>
       <use style="stroke:#000000;stroke-width:0.8;" x="308.240068" xlink:href="#m583b613acc" y="228.439219"/>
      </g>
     </g>
     <g id="text_14">
      <!-- 0 -->
      <g transform="translate(305.058818 243.037656)scale(0.1 -0.1)">
       <use xlink:href="#DejaVuSans-48"/>
      </g>
     </g>
    </g>
    <g id="xtick_6">
     <g id="line2d_15">
      <g>
       <use style="stroke:#000000;stroke-width:0.8;" x="360.023821" xlink:href="#m583b613acc" y="228.439219"/>
      </g>
     </g>
     <g id="text_15">
      <!-- 5 -->
      <g transform="translate(356.842571 243.037656)scale(0.1 -0.1)">
       <use xlink:href="#DejaVuSans-53"/>
      </g>
     </g>
    </g>
   </g>
   <g id="matplotlib.axis_4">
    <g id="ytick_10">
     <g id="line2d_16">
      <g>
       <use style="stroke:#000000;stroke-width:0.8;" x="215.905682" xlink:href="#mc58076f051" y="228.439219"/>
      </g>
     </g>
     <g id="text_16">
      <!-- 0 -->
      <g transform="translate(202.543182 232.238437)scale(0.1 -0.1)">
       <use xlink:href="#DejaVuSans-48"/>
      </g>
     </g>
    </g>
    <g id="ytick_11">
     <g id="line2d_17">
      <g>
       <use style="stroke:#000000;stroke-width:0.8;" x="215.905682" xlink:href="#mc58076f051" y="201.259219"/>
      </g>
     </g>
     <g id="text_17">
      <!-- 25 -->
      <g transform="translate(196.180682 205.058437)scale(0.1 -0.1)">
       <use xlink:href="#DejaVuSans-50"/>
       <use x="63.623047" xlink:href="#DejaVuSans-53"/>
      </g>
     </g>
    </g>
    <g id="ytick_12">
     <g id="line2d_18">
      <g>
       <use style="stroke:#000000;stroke-width:0.8;" x="215.905682" xlink:href="#mc58076f051" y="174.079219"/>
      </g>
     </g>
     <g id="text_18">
      <!-- 50 -->
      <g transform="translate(196.180682 177.878437)scale(0.1 -0.1)">
       <use xlink:href="#DejaVuSans-53"/>
       <use x="63.623047" xlink:href="#DejaVuSans-48"/>
      </g>
     </g>
    </g>
    <g id="ytick_13">
     <g id="line2d_19">
      <g>
       <use style="stroke:#000000;stroke-width:0.8;" x="215.905682" xlink:href="#mc58076f051" y="146.899219"/>
      </g>
     </g>
     <g id="text_19">
      <!-- 75 -->
      <g transform="translate(196.180682 150.698437)scale(0.1 -0.1)">
       <use xlink:href="#DejaVuSans-55"/>
       <use x="63.623047" xlink:href="#DejaVuSans-53"/>
      </g>
     </g>
    </g>
    <g id="ytick_14">
     <g id="line2d_20">
      <g>
       <use style="stroke:#000000;stroke-width:0.8;" x="215.905682" xlink:href="#mc58076f051" y="119.719219"/>
      </g>
     </g>
     <g id="text_20">
      <!-- 100 -->
      <g transform="translate(189.818182 123.518437)scale(0.1 -0.1)">
       <use xlink:href="#DejaVuSans-49"/>
       <use x="63.623047" xlink:href="#DejaVuSans-48"/>
       <use x="127.246094" xlink:href="#DejaVuSans-48"/>
      </g>
     </g>
    </g>
    <g id="ytick_15">
     <g id="line2d_21">
      <g>
       <use style="stroke:#000000;stroke-width:0.8;" x="215.905682" xlink:href="#mc58076f051" y="92.539219"/>
      </g>
     </g>
     <g id="text_21">
      <!-- 125 -->
      <g transform="translate(189.818182 96.338437)scale(0.1 -0.1)">
       <use xlink:href="#DejaVuSans-49"/>
       <use x="63.623047" xlink:href="#DejaVuSans-50"/>
       <use x="127.246094" xlink:href="#DejaVuSans-53"/>
      </g>
     </g>
    </g>
    <g id="ytick_16">
     <g id="line2d_22">
      <g>
       <use style="stroke:#000000;stroke-width:0.8;" x="215.905682" xlink:href="#mc58076f051" y="65.359219"/>
      </g>
     </g>
     <g id="text_22">
      <!-- 150 -->
      <g transform="translate(189.818182 69.158437)scale(0.1 -0.1)">
       <use xlink:href="#DejaVuSans-49"/>
       <use x="63.623047" xlink:href="#DejaVuSans-53"/>
       <use x="127.246094" xlink:href="#DejaVuSans-48"/>
      </g>
     </g>
    </g>
    <g id="ytick_17">
     <g id="line2d_23">
      <g>
       <use style="stroke:#000000;stroke-width:0.8;" x="215.905682" xlink:href="#mc58076f051" y="38.179219"/>
      </g>
     </g>
     <g id="text_23">
      <!-- 175 -->
      <g transform="translate(189.818182 41.978437)scale(0.1 -0.1)">
       <use xlink:href="#DejaVuSans-49"/>
       <use x="63.623047" xlink:href="#DejaVuSans-55"/>
       <use x="127.246094" xlink:href="#DejaVuSans-53"/>
      </g>
     </g>
    </g>
    <g id="ytick_18">
     <g id="line2d_24">
      <g>
       <use style="stroke:#000000;stroke-width:0.8;" x="215.905682" xlink:href="#mc58076f051" y="10.999219"/>
      </g>
     </g>
     <g id="text_24">
      <!-- 200 -->
      <g transform="translate(189.818182 14.798437)scale(0.1 -0.1)">
       <use xlink:href="#DejaVuSans-50"/>
       <use x="63.623047" xlink:href="#DejaVuSans-48"/>
       <use x="127.246094" xlink:href="#DejaVuSans-48"/>
      </g>
     </g>
    </g>
   </g>
   <g id="patch_108">
    <path d="M 215.905682 228.439219 
L 215.905682 10.999219 
" style="fill:none;stroke:#000000;stroke-linecap:square;stroke-linejoin:miter;stroke-width:0.8;"/>
   </g>
   <g id="patch_109">
    <path d="M 368.0875 228.439219 
L 368.0875 10.999219 
" style="fill:none;stroke:#000000;stroke-linecap:square;stroke-linejoin:miter;stroke-width:0.8;"/>
   </g>
   <g id="patch_110">
    <path d="M 215.905682 228.439219 
L 368.0875 228.439219 
" style="fill:none;stroke:#000000;stroke-linecap:square;stroke-linejoin:miter;stroke-width:0.8;"/>
   </g>
   <g id="patch_111">
    <path d="M 215.905682 10.999219 
L 368.0875 10.999219 
" style="fill:none;stroke:#000000;stroke-linecap:square;stroke-linejoin:miter;stroke-width:0.8;"/>
   </g>
  </g>
 </g>
 <defs>
  <clipPath id="p86b9c175f4">
   <rect height="217.44" width="152.181818" x="33.2875" y="10.999219"/>
  </clipPath>
  <clipPath id="p1b1393ef8e">
   <rect height="217.44" width="152.181818" x="215.905682" y="10.999219"/>
  </clipPath>
 </defs>
</svg>
